<svg width="48" height="48" viewBox="0 0 48 48" fill="none" xmlns="http://www.w3.org/2000/svg">
<g clip-path="url(#clip0_46_526)">
<path d="M42.7417 14.1545C43.8685 14.1545 44.9952 14.1169 46.1095 14.167C46.9858 14.2046 47.6243 13.9415 47.9999 13.1273V12.3758C47.6243 11.5616 46.9858 11.2985 46.1095 11.3361C44.8575 11.3862 43.593 11.3486 42.2785 11.3486V7.80376C42.2785 7.60334 42.2785 7.40292 42.2785 7.18998C42.266 6.31315 41.6775 5.72443 40.8012 5.7119C39.4491 5.69937 38.0844 5.7119 36.6572 5.7119V5.26096C36.6572 4.13361 36.6196 3.00626 36.6697 1.89144C36.7073 1.01461 36.4444 0.375783 35.6306 0H34.8794C34.0656 0.375783 33.8027 1.01461 33.8403 1.89144C33.8904 3.14405 33.8528 4.40919 33.8528 5.69937H31.0359V5.26096C31.0359 4.13361 30.9984 3.00626 31.0484 1.89144C31.086 1.01461 30.8231 0.375783 30.0093 0H29.2581C28.4444 0.375783 28.1814 1.01461 28.219 1.89144C28.2691 3.14405 28.2315 4.40919 28.2315 5.69937H25.4146V5.26096C25.4146 4.13361 25.3771 3.00626 25.4271 1.89144C25.4647 1.01461 25.2018 0.375783 24.388 0H23.6368C22.8231 0.375783 22.5602 1.01461 22.5977 1.89144C22.6478 3.14405 22.6102 4.40919 22.6102 5.69937H19.7933V5.26096C19.7933 4.13361 19.7558 3.00626 19.8059 1.89144C19.8434 1.01461 19.5805 0.375783 18.7667 0H18.0156C17.2018 0.375783 16.9389 1.01461 16.9764 1.89144C17.0265 3.14405 16.989 4.40919 16.989 5.69937H14.1846V5.26096C14.1846 4.13361 14.147 3.00626 14.1971 1.89144C14.2347 1.01461 13.9717 0.375783 13.158 0H12.4068C11.593 0.375783 11.3301 1.01461 11.3677 1.89144C11.4178 3.15658 11.3802 4.40919 11.3802 5.72443C10.0406 5.72443 8.75108 5.72443 7.46157 5.72443C7.27378 5.72443 7.08598 5.7119 6.89819 5.74948C6.20961 5.88727 5.75891 6.45094 5.75891 7.20251C5.74639 8.5428 5.74639 9.89562 5.74639 11.2359C5.74639 11.2484 5.73387 11.261 5.70883 11.3486H5.25813C4.03121 11.3486 2.79177 11.3486 1.55233 11.3486C0.638406 11.3486 0.0124279 11.9374 0.0124279 12.7516C0.0124279 13.5658 0.650926 14.1545 1.55233 14.1545C2.91697 14.1545 4.29412 14.1545 5.69631 14.1545V16.9729C4.8575 16.9729 4.03121 16.9729 3.21744 16.9729C2.62902 16.9729 2.02808 16.9603 1.43966 16.9729C0.638406 16.9854 0.0249474 17.5992 0.0249474 18.3507C0.0124279 19.1399 0.625887 19.7662 1.45218 19.7662C2.69161 19.7787 3.91853 19.7662 5.15797 19.7662H5.70883V22.5846H4.7949C3.73074 22.5846 2.66658 22.5846 1.60241 22.5846C0.663445 22.5846 0.0124279 23.1608 0.0249474 24C0.037467 24.8142 0.663445 25.3904 1.57737 25.3904C2.79177 25.3904 4.01869 25.3904 5.23309 25.3904H5.70883V28.2088H5.27065C4.03121 28.2088 2.80429 28.2088 1.56485 28.2088C0.650926 28.2088 0.0249474 28.7975 0.0249474 29.6117C0.0249474 30.4259 0.663445 31.0146 1.56485 31.0271C2.94201 31.0271 4.30664 31.0271 5.70883 31.0271V33.833C4.30664 33.833 2.91697 33.7954 1.53981 33.858C1.15171 33.8706 0.713524 34.0585 0.413054 34.309C-0.0251309 34.6848 -0.100248 35.2234 0.125104 35.7745C0.375495 36.3507 0.8262 36.6514 1.43966 36.6514C2.6791 36.6639 3.90601 36.6514 5.14545 36.6514H5.72135V37.1148C5.72135 38.3173 5.72135 39.5198 5.72135 40.7223C5.72135 41.6994 6.29725 42.2631 7.26126 42.2756C8.60085 42.2756 9.94044 42.2756 11.3426 42.2756V46.3215C11.3426 47.3486 11.8935 48 12.7573 48C13.6087 47.9875 14.147 47.3486 14.147 46.3466C14.147 45.1566 14.147 43.9666 14.147 42.7891V42.3132H16.9514V42.7516C16.9514 43.9916 16.9514 45.2192 16.9514 46.4593C16.9514 47.3737 17.5398 48 18.3536 48C19.1799 48 19.7558 47.3737 19.7558 46.4593C19.7558 45.0814 19.7558 43.7161 19.7558 42.3132H22.5727V45.833C22.5727 46.096 22.5602 46.3591 22.5727 46.6347C22.6102 47.3987 23.2112 48 23.9624 48.0125C24.726 48.0251 25.3645 47.4238 25.3771 46.6221C25.3896 45.2818 25.3771 43.9415 25.3896 42.5887C25.3896 42.5136 25.4021 42.4384 25.4021 42.3257H28.2065V43.428C28.2065 44.4551 28.194 45.4948 28.2065 46.5219C28.219 47.3862 28.8199 48.0125 29.6212 48C30.4099 47.9875 30.9984 47.3737 31.0109 46.5344C31.0234 45.2818 31.0109 44.0292 31.0109 42.7891V42.3132H33.8027C33.8153 42.4635 33.8278 42.6138 33.8278 42.7641C33.8278 44.0042 33.8278 45.2317 33.8278 46.4718C33.8278 47.3862 34.4162 48.0125 35.23 48.0125C36.0437 48.0125 36.6322 47.3737 36.6322 46.4718C36.6322 45.0939 36.6322 43.7286 36.6322 42.3006H38.1971C39.0359 42.3006 39.8872 42.3006 40.7261 42.3006C41.665 42.3006 42.2534 41.7244 42.2534 40.785C42.2534 39.5825 42.2534 38.38 42.2534 37.1775V36.6764C43.5555 36.6764 44.82 36.6388 46.0844 36.6889C46.9608 36.7265 47.5993 36.4635 47.9749 35.6493V34.8977C47.5993 34.0835 46.9608 33.8205 46.0844 33.858C44.8325 33.9081 43.568 33.8706 42.2785 33.8706V31.0647H42.7167C43.8434 31.0647 44.9702 31.0271 46.0844 31.0772C46.9608 31.1148 47.5993 30.8518 47.9749 30.0376V29.286C47.5993 28.4718 46.9608 28.2088 46.0844 28.2463C44.8325 28.2965 43.568 28.2589 42.2785 28.2589V25.4405H42.7167C43.8434 25.4405 44.9702 25.4029 46.0844 25.453C46.9608 25.4906 47.5993 25.215 47.9749 24.4134V23.6618C47.5993 22.8476 46.9608 22.5846 46.0844 22.6221C44.8325 22.6722 43.568 22.6347 42.2785 22.6347V19.8163H42.7167C43.8434 19.8163 44.9702 19.7787 46.0844 19.8288C46.9608 19.8664 47.5993 19.6033 47.9749 18.7891V18.0376C47.5993 17.2234 46.9608 16.9603 46.0844 16.9979C44.8325 17.048 43.568 17.0104 42.2785 17.0104V14.1545H42.7417ZM36.6572 35.023C36.6572 36.1127 36.1189 36.6639 35.0171 36.6639H13.0453C11.881 36.6639 11.3552 36.1378 11.3552 34.9854V13.0021C11.3552 11.8747 11.8935 11.3486 13.0203 11.3486C20.3442 11.3486 27.6681 11.3486 34.9921 11.3486C36.1189 11.3486 36.6572 11.8873 36.6572 13.0021C36.6572 20.3424 36.6572 27.6827 36.6572 35.023Z" fill="white"/>
<path d="M28.2187 18.4007C28.2312 19.1648 28.8321 19.7786 29.6459 19.7786C31.0231 19.7911 32.4002 19.7786 33.8024 19.7786V33.8078H31.0356V31.0521C31.0356 30.6012 31.0481 30.1502 31.0356 29.6993C31.0231 28.835 30.4221 28.2087 29.6084 28.2212C28.8196 28.2337 28.2312 28.8475 28.2312 29.6867C28.2187 31.0521 28.2312 32.4049 28.2312 33.8078H25.4519C25.4393 33.7076 25.4268 33.5824 25.4268 33.4696C25.4268 31.6784 25.4268 29.8746 25.4143 28.0834C25.4143 27.7953 25.5019 27.645 25.7649 27.5197C27.2672 26.7932 28.757 26.0417 30.2469 25.2776C30.8353 24.9769 31.1232 24.4007 31.0356 23.812C30.9479 23.2358 30.5348 22.7473 29.9589 22.6596C29.6334 22.6095 29.2578 22.6596 28.9699 22.7974C27.117 23.6867 25.2766 24.6262 23.4362 25.5531C22.8603 25.8412 22.6099 26.3298 22.6099 26.9686C22.6099 29.073 22.6099 31.1899 22.6099 33.2943V33.8454H14.1968V31.0521H14.635C15.8368 31.0521 17.0387 31.0521 18.2406 31.0521C19.1545 31.0521 19.7805 30.4759 19.793 29.6492C19.793 28.835 19.167 28.2462 18.2531 28.2337C16.9135 28.2337 15.5739 28.2337 14.1968 28.2337V14.1794H16.9761V14.6179C16.9761 15.8204 16.9761 17.0229 16.9761 18.2254C16.9761 19.1398 17.5645 19.7661 18.3783 19.7786C19.2046 19.7786 19.7805 19.1523 19.793 18.2379C19.793 16.8976 19.793 15.5573 19.793 14.192H22.6099V14.6179C22.6099 16.384 22.5974 18.1502 22.6224 19.9164C22.6224 20.2295 22.5348 20.3799 22.2594 20.5176C20.7695 21.2442 19.2922 21.9832 17.8149 22.7222C17.2265 23.0229 16.926 23.5865 17.0012 24.1753C17.0763 24.764 17.5145 25.2776 18.1029 25.3527C18.4159 25.3903 18.7789 25.3527 19.0544 25.2275C20.9073 24.3256 22.7476 23.3986 24.588 22.4842C25.1639 22.1961 25.4268 21.7202 25.4268 21.0813C25.4268 18.9519 25.4268 16.835 25.4268 14.7055V14.1794H33.8274V16.9728H31.1232C30.635 16.9728 30.1592 16.9602 29.671 16.9728C28.8321 16.9978 28.2187 17.6116 28.2187 18.4007Z" fill="white"/>
</g>
<defs>
<clipPath id="clip0_46_526">
<rect width="48" height="48" fill="white"/>
</clipPath>
</defs>
</svg>
