<svg width="48" height="48" viewBox="0 0 48 48" fill="none" xmlns="http://www.w3.org/2000/svg">
<g clip-path="url(#clip0_46_516)">
<path d="M44.4423 11.4244H13.0541C13.0289 11.2492 13.0037 11.0991 13.0037 10.9489C12.7895 7.88321 12.5502 4.81752 12.3613 1.75182C12.3235 0.925965 12.0464 0.337852 11.2907 0H2.0581C1.23939 0.375391 0.937092 1.01356 1.01267 1.88947C1.05045 2.36496 1.02526 2.85297 1.02526 3.34098C1.02526 4.95516 1.45351 5.63087 2.44856 5.61835C3.43102 5.60584 3.84667 4.94265 3.84667 3.36601V2.84046H9.57767C9.59026 2.95308 9.60286 3.04067 9.61546 3.14077C9.98073 8.2586 10.346 13.3764 10.7113 18.5068C11.1269 24.2753 11.5174 30.0563 11.9456 35.8248C12.122 38.2148 13.2808 40.0292 15.3087 41.318C15.4472 41.4056 15.5858 41.4932 15.7243 41.5808C14.8048 43.683 15.0693 45.4849 16.4926 46.8113C17.7774 48.0125 19.6793 48.3003 21.2538 47.5245C23.1053 46.611 23.7603 45.097 23.458 42.3691H32.3253C31.8089 44.4088 32.3001 46.098 34.0635 47.2742C35.4868 48.2127 37.0487 48.2628 38.5097 47.3618C40.3865 46.2106 40.9155 44.4713 40.3991 42.3441C40.9785 42.3441 41.5327 42.3566 42.0743 42.3441C42.8048 42.3191 43.3842 41.7435 43.422 41.0302C43.4724 40.342 42.9812 39.7164 42.2758 39.5662C42.0743 39.5287 41.8728 39.5412 41.6712 39.5412C34.1895 39.5412 26.7077 39.5412 19.2385 39.5412C18.4324 39.5412 17.6766 39.4286 16.9713 39.0282C14.9938 37.902 14.5781 36.2252 14.6915 33.9228H15.2457C22.5385 33.9228 29.8314 33.9353 37.1116 33.9228C40.6384 33.9103 43.5858 31.3702 44.0896 27.9041C44.7949 23.0865 45.4751 18.269 46.1679 13.4515C46.3946 12 45.8908 11.4244 44.4423 11.4244ZM36.3937 42.3316C37.162 42.3441 37.7918 42.9948 37.7792 43.7456C37.7666 44.5089 37.1242 45.1345 36.3685 45.1345C35.6128 45.1345 34.9578 44.4963 34.9578 43.7456C34.9578 42.9823 35.6128 42.3316 36.3937 42.3316ZM19.4148 42.3316C20.1832 42.3441 20.8129 42.9823 20.8129 43.7456C20.8129 44.5214 20.1454 45.1721 19.3644 45.147C18.6087 45.122 17.9789 44.4713 17.9915 43.7205C18.0041 42.9572 18.6591 42.3316 19.4148 42.3316ZM31.8593 25.001C30.902 25.9896 29.9321 26.9656 28.9245 27.9166C28.3577 28.4546 27.5516 28.4171 26.9722 27.854C26.0275 26.9406 25.0954 26.0146 24.176 25.0761C23.584 24.4755 23.6092 23.6121 24.176 23.0615C24.7302 22.5235 25.5615 22.536 26.1787 23.0865C26.2794 23.1867 26.3802 23.2868 26.5817 23.4619V21.3973C26.5817 20.4088 26.5691 19.4327 26.5817 18.4442C26.5943 17.6184 27.2367 17.0052 28.0176 17.0302C28.7859 17.0428 29.3905 17.6559 29.4031 18.4567C29.4157 19.9333 29.4031 21.4223 29.4031 22.8989V23.4369C29.6047 23.2492 29.7432 23.1241 29.8818 23.0115C30.4864 22.5109 31.3177 22.5485 31.8341 23.0865C32.3505 23.6246 32.3883 24.4505 31.8593 25.001Z" fill="white"/>
</g>
<defs>
<clipPath id="clip0_46_516">
<rect width="48" height="48" fill="white"/>
</clipPath>
</defs>
</svg>
