<svg width="32" height="32" viewBox="0 0 32 32" fill="none" xmlns="http://www.w3.org/2000/svg">
    <path d="M26.7033 6.09447C26.6946 6.07762 26.6801 6.06442 26.6624 6.05723C24.6203 5.12665 22.4655 4.46308 20.2515 4.08311C20.2314 4.0794 20.2106 4.08208 20.1921 4.09077C20.1737 4.09946 20.1584 4.11372 20.1486 4.13152C19.8551 4.66051 19.5887 5.20386 19.3504 5.75951C16.964 5.39969 14.5365 5.39969 12.1501 5.75951C11.9102 5.20244 11.6395 4.65896 11.3393 4.13152C11.3291 4.11411 11.3137 4.10017 11.2953 4.09154C11.2769 4.0829 11.2564 4.07997 11.2363 4.08311C9.02215 4.46228 6.86709 5.12591 4.82531 6.05728C4.80783 6.06464 4.79309 6.07721 4.78311 6.09324C0.699968 12.1497 -0.418557 18.0572 0.130153 23.8916C0.131697 23.9058 0.13612 23.9197 0.143159 23.9322C0.150199 23.9448 0.159711 23.9559 0.17113 23.9647C2.5487 25.7132 5.20805 27.0479 8.03568 27.9117C8.05559 27.9176 8.07686 27.9174 8.09661 27.911C8.11637 27.9045 8.13366 27.8922 8.14618 27.8758C8.75349 27.055 9.29162 26.1858 9.75509 25.2773C9.76145 25.2648 9.76509 25.2511 9.76575 25.2372C9.76641 25.2232 9.76409 25.2093 9.75894 25.1962C9.75377 25.1832 9.74591 25.1714 9.73583 25.1616C9.72576 25.1519 9.71371 25.1444 9.7005 25.1396C8.85192 24.817 8.03039 24.4283 7.24362 23.9769C7.22933 23.9686 7.21733 23.9569 7.20867 23.9429C7.20002 23.9288 7.19498 23.9128 7.194 23.8964C7.19302 23.88 7.19614 23.8636 7.20306 23.8486C7.20999 23.8336 7.22051 23.8206 7.23371 23.8106C7.3988 23.6878 7.56399 23.56 7.72163 23.4309C7.73563 23.4194 7.75258 23.4121 7.77056 23.4097C7.78855 23.4073 7.80685 23.41 7.82341 23.4173C12.9778 25.7537 18.5582 25.7537 23.6515 23.4173C23.6682 23.4095 23.6866 23.4064 23.7049 23.4087C23.7232 23.4109 23.7405 23.4182 23.7546 23.4297C23.9123 23.5587 24.0775 23.6878 24.2438 23.8106C24.257 23.8205 24.2677 23.8334 24.2747 23.8484C24.2817 23.8632 24.285 23.8797 24.2841 23.8961C24.2833 23.9125 24.2784 23.9285 24.2698 23.9426C24.2613 23.9567 24.2494 23.9685 24.2351 23.9769C23.4502 24.4321 22.6279 24.8206 21.777 25.1383C21.7639 25.1433 21.7519 25.151 21.7418 25.1609C21.7319 25.1709 21.724 25.1828 21.719 25.1959C21.7139 25.209 21.7118 25.223 21.7125 25.237C21.7133 25.2511 21.717 25.2648 21.7235 25.2773C22.1947 26.1808 22.732 27.0488 23.3312 27.8743C23.3433 27.8912 23.3606 27.9039 23.3803 27.9106C23.4002 27.9173 23.4216 27.9176 23.4417 27.9115C26.2744 27.0506 28.9384 25.7159 31.3189 23.9647C31.3305 23.9562 31.3401 23.9455 31.3472 23.9332C31.3543 23.9207 31.3586 23.907 31.3599 23.8928C32.0168 17.1477 30.2601 11.2885 26.7033 6.09447ZM10.5248 20.339C8.97299 20.339 7.69431 18.9246 7.69431 17.1873C7.69431 15.4502 8.94819 14.0356 10.5248 14.0356C12.1138 14.0356 13.3801 15.4625 13.3553 17.1873C13.3553 18.9246 12.1014 20.339 10.5248 20.339ZM20.9902 20.339C19.4384 20.339 18.1597 18.9246 18.1597 17.1873C18.1597 15.4502 19.4136 14.0356 20.9902 14.0356C22.5793 14.0356 23.8455 15.4625 23.8207 17.1873C23.8207 18.9246 22.5793 20.339 20.9902 20.339Z" fill="white"/>
</svg>