<svg width="48" height="48" viewBox="0 0 48 48" fill="none" xmlns="http://www.w3.org/2000/svg">
<path d="M43.7375 3.48425C43.625 2.79335 43.2375 2.30716 42.5875 2.08966C41.9 1.85936 41.3 2.03848 40.7875 2.55026C38.4875 4.89164 36.1875 7.24581 33.9 9.59998C33.6125 9.89425 33.3875 9.93264 33.0125 9.7791C26.775 7.28419 20.55 7.36096 14.375 10.0222C9.875 11.9669 6.2 15.0248 3.1875 18.9271C1.9375 20.5904 0.6375 22.2409 0 24.288V25.4395C0.1875 25.9129 0.325 26.4118 0.5625 26.8469C1.875 29.1498 3.4125 31.2737 5.2375 33.1673C6.1625 34.1141 7.1375 35.0097 8.1125 35.9437C8.025 36.046 7.925 36.1612 7.8125 36.2635C5.6875 38.4258 3.575 40.6008 1.45 42.7631C1.35 42.8655 1.25 42.9678 1.15 43.0702C0.6875 43.5947 0.575 44.1961 0.8 44.8486C1.0125 45.4883 1.475 45.8721 2.1375 45.9745C2.8375 46.1024 3.3625 45.757 3.8375 45.2708C15.1 33.7558 26.3625 22.2409 37.6375 10.7387C39.4625 8.8707 41.275 7.01551 43.1125 5.16032C43.5625 4.68693 43.85 4.16235 43.7375 3.48425ZM26.7875 16.8544C26.6875 16.9568 26.4125 16.9568 26.25 16.9056C23.1625 16.0995 20.4375 16.7776 18.2125 19.1062C16.05 21.358 15.4375 24.0961 16.225 27.1411C16.3 27.4354 16.2875 27.6273 16.0625 27.8576C15.2875 28.6125 14.5375 29.4057 13.775 30.199C11.75 26.463 11.8875 20.6799 15.775 16.6369C19.65 12.5939 25.3375 12.2612 29.2375 14.4107C28.4 15.2423 27.6125 16.0612 26.7875 16.8544Z" fill="white"/>
<path d="M47.9999 24.288V25.4395C47.3374 27.5122 46.0249 29.1882 44.7249 30.8515C41.4624 35.0481 37.4624 38.2467 32.5124 40.1275C26.5499 42.3921 20.5999 42.2641 14.6999 39.8204C14.5874 39.7692 14.4749 39.718 14.3499 39.6669C14.3249 39.6541 14.3124 39.6157 14.2749 39.5773C14.3499 39.4877 14.4249 39.3982 14.5124 39.3086C15.7624 38.0292 17.0124 36.7625 18.2499 35.4703C18.4499 35.2656 18.5999 35.2528 18.8499 35.3679C25.7249 38.784 33.6749 34.8434 35.2874 27.2179C35.8374 24.6078 35.4999 22.0745 34.3499 19.682C34.1999 19.3621 34.1999 19.1702 34.4624 18.9143C36.0874 17.2766 37.6874 15.6262 39.3124 13.9757C39.4124 13.8733 39.5124 13.7838 39.6749 13.6174C40.6124 14.5002 41.5749 15.3319 42.4624 16.2403C44.3874 18.1978 46.0124 20.3857 47.3874 22.791C47.6499 23.2644 47.7999 23.789 47.9999 24.288Z" fill="white"/>
<path d="M29.6626 30.7876C27.0626 33.3849 23.4251 33.5896 21.2251 32.6044C24.6751 29.086 28.1376 25.5419 31.5751 22.0234C32.5626 24.3776 32.3126 28.1264 29.6626 30.7876Z" fill="white"/>
</svg>
