<svg width="48" height="48" viewBox="0 0 48 48" fill="none" xmlns="http://www.w3.org/2000/svg">
<g clip-path="url(#clip0_46_479)">
<path d="M47.9 34.0769C47.3992 29.5073 43.9063 25.5636 39.4243 24.5621C38.598 24.3743 37.7341 24.3117 36.8703 24.224C34.6168 23.9862 32.8139 21.7702 33.2021 19.5292C33.3398 18.7029 33.7404 17.9142 34.0909 17.1254C34.6794 15.7858 35.1426 14.4212 35.2302 12.9564C35.6559 6.05813 29.8343 0.41181 22.9611 1.05031C15.3116 1.76392 10.6794 9.77644 13.6715 16.5495C14.0221 17.3383 14.3601 18.1145 14.6731 18.9157C15.4744 20.9689 13.5964 23.9611 11.5557 24.1489C10.5667 24.2365 9.56512 24.3367 8.58859 24.5621C2.74196 25.8891 -1.03895 31.886 0.250566 37.7452C1.56512 43.7671 7.17388 47.5605 13.2584 46.5088C15.9376 46.0456 18.1661 44.8312 19.5432 42.3398C19.8938 41.7139 20.2944 41.1129 20.7326 40.5495C22.3977 38.4087 25.5902 38.3837 27.2553 40.5245C27.7936 41.2131 28.2318 41.9768 28.7075 42.7029C29.3585 43.6919 30.0847 44.5934 31.1363 45.1943C37.3585 48.7624 45.296 45.6826 47.4618 38.8469C47.6997 38.0832 47.8249 37.2819 48.0002 36.4932V34.5276C47.9626 34.3774 47.9251 34.2272 47.9 34.0769ZM11.2427 41.0628C8.12537 41.0378 5.62146 38.4963 5.6465 35.404C5.67154 32.3117 8.18797 29.8077 11.2678 29.8328C14.4102 29.8578 16.9016 32.3492 16.8891 35.4541C16.864 38.5714 14.3226 41.1004 11.2427 41.0628ZM23.9751 33.3257C20.8703 33.3132 18.3664 30.7843 18.3789 27.6669C18.3914 24.5996 20.9329 22.0707 24.0002 22.0832C27.105 22.0832 29.634 24.6497 29.6215 27.7796C29.6089 30.8469 27.0675 33.3383 23.9751 33.3257ZM24.0127 17.8516C20.9078 17.8516 18.3789 15.3351 18.3789 12.2303C18.3789 9.13795 20.9329 6.59648 24.0252 6.60899C27.0925 6.62151 29.6215 9.15047 29.634 12.2178C29.634 15.3351 27.1175 17.8516 24.0127 17.8516ZM36.7075 41.0628C33.6152 41.0503 31.1238 38.5214 31.1238 35.3915C31.1363 32.2991 33.6528 29.8203 36.8077 29.8328C39.875 29.8328 42.3664 32.3743 42.3664 35.4791C42.3664 38.5589 39.8249 41.0754 36.7075 41.0628Z" fill="white"/>
<path d="M14.0721 35.4787C14.0595 37.0186 12.7951 38.2705 11.2552 38.258C9.70273 38.2455 8.43826 36.9685 8.45078 35.4161C8.4633 33.8762 9.72777 32.6367 11.2677 32.6367C12.8451 32.6492 14.0846 33.9012 14.0721 35.4787Z" fill="white"/>
<path d="M39.5617 35.4664C39.5492 36.9938 38.2847 38.2583 36.7573 38.2708C35.2049 38.2708 33.9404 36.9938 33.9404 35.4289C33.9404 33.8889 35.1924 32.6495 36.7448 32.6495C38.2972 32.637 39.5617 33.9015 39.5617 35.4664Z" fill="white"/>
<path d="M26.8172 27.7296C26.8046 29.2695 25.5527 30.509 24.0003 30.509C22.4353 30.509 21.1834 29.2445 21.1959 27.6796C21.2084 26.1522 22.4729 24.8877 24.0128 24.8877C25.5652 24.9002 26.8297 26.1772 26.8172 27.7296Z" fill="white"/>
<path d="M26.8171 12.2552C26.8046 13.7951 25.5651 15.0345 24.0127 15.0471C22.4478 15.0471 21.1958 13.7951 21.1958 12.2302C21.2083 10.6903 22.4728 9.4383 24.0002 9.42578C25.5526 9.42578 26.8171 10.7028 26.8171 12.2552Z" fill="white"/>
</g>
<defs>
<clipPath id="clip0_46_479">
<rect width="48" height="48" fill="white"/>
</clipPath>
</defs>
</svg>
