<svg width="48" height="48" viewBox="0 0 48 48" fill="none" xmlns="http://www.w3.org/2000/svg">
<g clip-path="url(#clip0_46_492)">
<path d="M47.9995 39.1867C47.9995 40.5758 47.0436 41.5065 45.6098 41.5204C42.2368 41.5204 38.8638 41.5204 35.4909 41.5204H20.0599C18.271 41.5204 17.4243 40.6452 17.4653 38.8394C17.5882 32.5605 22.4223 26.9484 28.5674 26.1705C31.6946 25.7816 34.8627 25.6704 37.9762 26.365C43.7526 27.6569 48.0269 33.1856 47.9995 39.1867Z" fill="white"/>
<path d="M21.8353 14.8349C21.849 19.7663 17.9161 23.767 13.082 23.7531C8.26152 23.7392 4.36963 19.7663 4.36963 14.821C4.36963 9.97294 8.30249 6.01393 13.123 6.00004C17.8615 5.98614 21.8217 10.0007 21.8353 14.8349Z" fill="white"/>
<path d="M41.4586 14.8211C41.4722 19.7525 37.553 23.7532 32.7052 23.7532C27.8711 23.7393 23.9792 19.7386 24.0065 14.7794C24.0201 9.94527 28.0213 5.97236 32.8008 6.00014C37.553 6.04182 41.4449 10.0147 41.4586 14.8211Z" fill="white"/>
<path d="M13.3414 41.4922C13.2731 41.4922 13.1092 41.5061 12.9454 41.5061C9.46313 41.5061 5.99457 41.5061 2.51235 41.5061C0.860008 41.5061 0.0133518 40.617 -0.000303975 38.9223C-0.0412712 34.2131 1.7886 30.4903 5.66683 27.8787C7.36015 26.7396 9.24464 26.1145 11.2794 26.0034C13.4233 25.8784 15.5673 25.8228 17.6566 26.5313C17.8205 26.5868 17.9707 26.6424 18.1755 26.7257C14.3929 30.9626 12.522 35.7412 13.3414 41.4922Z" fill="white"/>
</g>
<defs>
<clipPath id="clip0_46_492">
<rect width="48" height="48" fill="white"/>
</clipPath>
</defs>
</svg>
