<svg width="48" height="48" viewBox="0 0 48 48" fill="none" xmlns="http://www.w3.org/2000/svg">
<g clip-path="url(#clip0_46_504)">
<path d="M7.99606 15.4895C4.18002 16.0179 0.657511 13.376 0.0939105 9.55997C0.0821689 9.46604 0.0352021 9.38385 0.0117188 9.30166V7.71653C0.117394 7.29383 0.199586 6.87113 0.328744 6.44843C1.29156 3.26643 4.30918 1.2586 7.74949 1.51692C10.8728 1.75175 13.5499 4.34667 13.9961 7.55214C14.5127 11.4152 11.8356 14.9611 7.99606 15.4895Z" fill="white"/>
<path d="M15.7923 34.2996C12.7277 28.9923 9.71013 23.732 6.62207 18.3896C9.39311 18.4248 11.7767 17.5559 13.808 15.6772C13.9137 15.8534 14.0076 15.9943 14.0898 16.1352C17.4949 22.053 20.9117 27.9708 24.3168 33.9003C24.4929 34.2174 24.6925 34.323 25.0448 34.323C27.7219 34.3113 30.3872 34.3113 33.0643 34.3113C34.2385 34.3113 34.7082 34.7575 34.8021 35.9199C34.9078 37.2585 35.0252 38.597 35.1426 39.9708H12.8686C12.9626 38.7262 13.0683 37.5168 13.1622 36.3074C13.1739 36.1313 13.1974 35.9669 13.2092 35.7907C13.2796 34.8279 13.8197 34.323 14.7943 34.323C15.0878 34.2878 15.3931 34.2996 15.7923 34.2996Z" fill="white"/>
<path d="M47.7063 13.4581C47.5066 13.6812 47.2366 13.8926 46.9548 13.9748C44.5947 14.6675 42.2229 15.3486 39.8511 16.0061C39.581 16.0765 39.2522 16.0765 38.9822 15.9944C36.6573 15.3486 34.3325 14.6675 32.0076 14.01C31.1857 13.7752 30.8335 13.1881 30.8569 12.3309H16.1211C16.5908 11.0628 16.8726 9.81822 16.8726 8.5149C16.8726 7.22331 16.6025 5.96695 16.1094 4.71059H30.8335C30.7865 3.60687 31.4088 3.16069 32.3481 2.90237C34.4851 2.32703 36.6104 1.68123 38.7474 1.09415C39.1231 0.988473 39.5693 0.953248 39.9333 1.05892C42.2699 1.69297 44.583 2.36225 46.9078 3.03153C47.6123 3.24288 48.035 3.82996 47.9881 4.4875C47.9411 5.14503 47.4479 5.70863 46.7787 5.79082C46.5086 5.82605 46.2151 5.7556 45.9567 5.68515C43.8902 5.09807 41.8119 4.51098 39.7454 3.9239C39.581 3.87693 39.4049 3.86519 39.2405 3.87693C38.9822 3.90041 38.853 4.02957 38.853 4.33486C38.8648 7.11764 38.853 9.91216 38.8648 12.6949C38.8648 13.1294 39.1583 13.282 39.6984 13.1294C40.8256 12.8124 41.9411 12.4836 43.0683 12.1548C44.1485 11.8495 45.2288 11.5325 46.309 11.2507C46.8843 11.0981 47.4597 11.3799 47.765 11.873C48.0937 12.3779 48.0937 13.012 47.7063 13.4581Z" fill="white"/>
<path d="M34.0276 48.4837H13.9728C12.7634 48.4837 12.1998 47.8614 12.3055 46.652C12.4229 45.3956 12.5286 44.1275 12.6343 42.8242H35.3662C35.4249 43.4113 35.4718 43.9866 35.5188 44.5502C35.5775 45.2547 35.6362 45.9592 35.6949 46.652C35.8006 47.8614 35.2487 48.472 34.0276 48.4837Z" fill="white"/>
</g>
<defs>
<clipPath id="clip0_46_504">
<rect width="48" height="48" fill="white"/>
</clipPath>
</defs>
</svg>
