<svg width="48" height="48" viewBox="0 0 48 48" fill="none" xmlns="http://www.w3.org/2000/svg">
<g clip-path="url(#clip0_46_536)">
<path d="M47.771 21.3158C45.5514 15.79 43.3462 10.2642 41.1266 4.72413C40.74 3.76499 40.1958 3.39278 39.1505 3.39278C35.8856 3.39278 32.6063 3.39278 29.3414 3.39278C28.9834 3.39278 28.7972 3.30689 28.6254 2.949C27.6946 1.05935 26.1338 0 24.0001 0C21.8665 0 20.3056 1.05935 19.3605 2.97763C19.1887 3.33552 18.9882 3.42141 18.6302 3.4071C15.3939 3.39278 12.1576 3.4071 8.92136 3.4071C7.73281 3.4071 7.26026 3.72204 6.81635 4.83865C4.66837 10.2356 2.50608 15.6326 0.329473 21.0295C0.0144374 21.8026 -0.0714814 22.5613 0.0430771 23.3773C0.615869 27.4715 3.98102 30.6209 8.01921 30.8357C12.1576 31.0647 15.8378 28.3591 16.8545 24.3507C17.1696 23.1196 17.1696 21.9314 16.6397 20.7003C15.2507 17.422 13.9619 14.0865 12.6445 10.7796C12.129 9.4912 11.6135 8.2028 11.0836 6.87146H19.1457C19.7042 8.26007 20.6636 9.29078 22.0669 9.89204C22.1815 9.93498 22.2531 10.207 22.2388 10.3788C22.0956 12.9412 21.9524 15.518 21.7949 18.0805C21.5228 22.7474 21.2507 27.4286 20.9786 32.0954C20.8354 34.5148 20.6922 36.9341 20.549 39.425C18.802 39.425 17.1266 39.3964 15.4512 39.4393C14.6206 39.4536 13.7615 39.5109 12.9452 39.6684C11.098 40.0262 10.2674 41.0999 10.2531 42.9752C10.2531 44.0632 10.2388 45.1512 10.2531 46.2392C10.2674 47.2699 10.9834 47.9857 12.0144 48C19.9906 48 27.9524 48 35.9285 48C36.9595 48 37.6899 47.2842 37.6899 46.2392C37.7042 45.0653 37.7042 43.8771 37.6899 42.7032C37.6612 41.2144 36.9452 40.2553 35.5276 39.7972C35.1266 39.6684 34.697 39.5395 34.2817 39.5395C32.2197 39.4823 30.1433 39.4536 28.0669 39.425C27.8521 39.425 27.6517 39.425 27.4082 39.425C27.1934 35.7316 26.9786 32.0954 26.7638 28.4593C26.5634 24.9949 26.3629 21.5449 26.1481 18.0805C25.9906 15.518 25.8474 12.9412 25.7042 10.3788C25.6899 10.2213 25.7614 9.9493 25.876 9.89204C27.2794 9.27647 28.2388 8.24575 28.7973 6.85714H36.8307C36.7591 7.05756 36.7018 7.22935 36.6302 7.38682C34.8259 11.9105 33.0216 16.4342 31.203 20.9436C30.8736 21.7453 30.7877 22.5327 30.9023 23.3916C31.4321 27.4286 34.8545 30.6209 38.907 30.8214C43.1027 31.0218 46.8545 28.2302 47.7424 24.1933C47.9858 23.2627 48.172 22.3036 47.771 21.3158ZM12.8736 20.5285H4.23878C5.65644 16.9639 7.0741 13.4423 8.54904 9.73457C10.024 13.428 11.4416 16.9496 12.8736 20.5285ZM35.1266 20.5142C36.5586 16.9496 37.9619 13.4137 39.4369 9.73457C40.9118 13.4137 42.3151 16.9353 43.7471 20.5142H35.1266Z" fill="white"/>
</g>
<defs>
<clipPath id="clip0_46_536">
<rect width="48" height="48" fill="white"/>
</clipPath>
</defs>
</svg>
