<svg width="32" height="32" viewBox="0 0 32 32" fill="none" xmlns="http://www.w3.org/2000/svg">
    <path d="M1.96184 14.2935L21.0232 6.43986C22.9048 5.62178 29.2858 3.00392 29.2858 3.00392C29.2858 3.00392 32.2309 1.8586 31.9855 4.64008C31.9037 5.7854 31.2492 9.794 30.5947 14.1298L28.5495 26.9737C28.5495 26.9737 28.3859 28.8553 26.9952 29.1826C25.6044 29.5098 23.3138 28.0372 22.9048 27.71C22.5775 27.4646 16.7691 23.7832 14.6421 21.9834C14.0695 21.4926 13.415 20.5109 14.7239 19.3656C17.669 16.6659 21.1868 13.3118 23.3138 11.1847C24.2955 10.203 25.2772 7.91241 21.1868 10.6939L9.65181 18.4657C9.65181 18.4657 8.34288 19.2838 5.88864 18.5475C3.43439 17.8112 0.571098 16.8295 0.571098 16.8295C0.571098 16.8295 -1.3923 15.6024 1.96184 14.2935V14.2935Z" fill="white"/>
</svg>