<svg width="48" height="48" viewBox="0 0 48 48" fill="none" xmlns="http://www.w3.org/2000/svg">
<path d="M47.0089 30.9717C42.2644 34.9442 37.52 38.9167 32.7605 42.8742C31.9798 43.5212 31.0939 43.6717 30.1781 43.2353C29.2622 42.814 28.7968 42.0616 28.7968 41.0384C28.7968 39.4885 28.7968 37.9236 28.7968 36.2985C28.5416 36.2834 28.3314 36.2684 28.1212 36.2684C27.3855 36.2383 26.6498 36.2985 25.9441 36.1931C24.743 36.0126 23.9172 34.8991 24.0073 33.6802C24.0974 32.5065 25.0583 31.4984 26.2444 31.4683C27.941 31.4231 29.6526 31.4231 31.3642 31.4683C32.5803 31.4984 33.5262 32.5065 33.5863 33.7404C33.6163 34.4326 33.5863 35.1097 33.5863 35.9524C36.4089 33.605 39.0965 31.3479 41.844 29.0607C39.0965 26.7735 36.4089 24.5164 33.5863 22.169C33.5863 22.8611 33.5863 23.4179 33.5863 23.9596C33.5713 25.7051 32.6554 26.638 30.9138 26.638C27.2654 26.638 23.6019 26.638 19.9535 26.638H19.2178C19.2028 26.8788 19.1878 27.0744 19.1878 27.27C19.1878 28.6093 19.1728 29.9334 19.1878 31.2726C19.2028 32.3561 18.7824 33.1837 17.7765 33.6351C16.8156 34.0715 15.9147 33.8608 15.119 33.1987C10.4046 29.2262 5.69013 25.2988 0.975712 21.3414C-0.300485 20.273 -0.330513 18.6027 0.945684 17.5344C5.69013 13.5619 10.4646 9.5743 15.2241 5.60178C16.0048 4.95475 16.8906 4.80427 17.7915 5.24065C18.7374 5.67702 19.1878 6.45948 19.1878 7.49776C19.1878 8.85202 19.1878 10.2063 19.1878 11.5455V12.2076C20.0286 12.2076 20.7943 12.1925 21.545 12.2076C23.3617 12.2678 24.5028 14.0133 23.7671 15.6083C23.3467 16.5111 22.626 16.9927 21.6351 17.0077C20.0136 17.0378 18.377 17.0378 16.7405 17.0077C15.4343 16.9927 14.4433 15.9845 14.4133 14.6754C14.3983 14.0133 14.4133 13.3361 14.4133 12.5236C11.5907 14.871 8.90314 17.1281 6.15557 19.4153C8.90314 21.7025 11.5907 23.9596 14.4133 26.307C14.4133 25.5847 14.4133 24.9828 14.4133 24.396C14.4283 22.801 15.3742 21.8379 16.9657 21.8229C20.6592 21.8229 24.3526 21.8229 28.0461 21.8229H28.7818C28.7968 21.5821 28.8118 21.3865 28.8118 21.1909C28.8118 19.8517 28.8268 18.5275 28.8118 17.1883C28.7968 16.135 29.2022 15.3074 30.1631 14.8559C31.139 14.3895 32.0548 14.5851 32.8806 15.2773C37.58 19.2046 42.2945 23.132 46.9939 27.0744C48.3151 28.203 48.3451 29.8582 47.0089 30.9717Z" fill="white"/>
</svg>
