<svg width="48" height="48" viewBox="0 0 48 48" fill="none" xmlns="http://www.w3.org/2000/svg">
<g clip-path="url(#clip0_46_545)">
<path d="M24.0359 1.42501e-05C10.8084 -0.0142715 0.0430745 10.7143 0.000127883 23.9429C-0.0428187 37.1572 10.7368 47.9714 23.9787 48C37.2062 48.0286 48.0144 37.2286 48.0144 24C48.0001 10.7857 37.2492 0.0143 24.0359 1.42501e-05ZM15.0887 5.44287C14.2584 7.04287 13.4567 8.60001 12.6121 10.2143C11.7389 9.85716 10.8227 9.50001 9.82059 9.10001C11.4239 7.55716 13.1561 6.40001 15.0887 5.44287ZM13.7717 22.2572C13.9721 19.6143 14.2727 17.0286 14.9169 14.5429C17.3792 14.8572 19.7842 15.1572 22.2465 15.4714V22.2572H13.7717ZM22.2465 25.7429V32.4857C19.7985 32.8 17.3792 33.1143 14.9026 33.4286C14.2441 30.9714 13.8576 28.4 13.7574 25.7429H22.2465ZM4.29479 18.1C4.88173 15.9286 5.89813 13.9572 7.18653 12.1143C7.40126 11.8 7.55873 11.7572 7.91662 11.9143C9.01892 12.4286 10.1355 12.8714 11.2378 13.3714C11.381 13.4286 11.5671 13.6857 11.5385 13.7857C10.8227 16.5 10.4648 19.2714 10.3216 22.0714C10.3216 22.1286 10.293 22.1714 10.2787 22.2429H3.39291C3.70785 20.8286 3.9369 19.4429 4.29479 18.1ZM3.50743 25.7429H10.1642C10.5936 28.6429 11.0088 31.5429 11.4382 34.4714C10.1642 35.0143 8.8185 35.6 7.41558 36.2C5.16804 33.1 3.55038 29.7429 3.50743 25.7429ZM9.79196 38.8857C10.8084 38.4714 11.7246 38.1 12.5978 37.7572C13.4424 39.3857 14.2441 40.9429 15.0744 42.5286C13.1561 41.6286 11.4382 40.4143 9.79196 38.8857ZM22.2608 44.2714C18.9825 42.7714 17.4221 39.9286 16.0335 36.8429C18.1093 36.3572 20.1707 36.1286 22.2608 36.0286V44.2714ZM22.2608 12.0143C20.185 11.7572 18.1379 11.5 16.0049 11.2286C17.4221 8.05716 18.9968 5.2143 22.2608 3.7143V12.0143ZM40.7135 11.9714C42.8465 14.9857 44.1206 18.3286 44.4642 22.0143C44.4785 22.0857 44.4642 22.1572 44.4499 22.2572H37.7073C37.607 21.1714 37.5641 20.1 37.4066 19.0429C37.1489 17.3429 36.8054 15.6429 36.4761 13.9429C36.4045 13.6 36.4332 13.4572 36.7911 13.3143C37.922 12.8572 39.0243 12.3714 40.1266 11.8714C40.3556 11.8 40.5274 11.7 40.7135 11.9714ZM38.1797 9.08573C37.1919 9.48573 36.2757 9.85716 35.3881 10.2143C34.5578 8.60001 33.7419 7.04287 32.9115 5.45716C34.8585 6.38573 36.5906 7.57144 38.1797 9.08573ZM25.7538 3.8143C27.7723 4.20001 30.5065 7.42859 31.981 11.2286C29.8767 11.5 27.8438 11.7572 25.7538 12.0143V3.8143ZM25.7395 15.4714C28.1874 15.1572 30.6211 14.8429 33.0977 14.5286C33.7705 17 34.1427 19.5857 34.2429 22.2429H25.7395V15.4714ZM34.2286 25.7429C34.1284 28.3857 33.7562 30.9572 33.0977 33.4143C30.6354 33.1 28.2161 32.7857 25.7538 32.4714V25.7429H34.2286ZM25.7395 44.2857V35.9429C27.8152 36.2 29.848 36.4572 32.024 36.7286C30.6067 39.9143 29.032 42.7572 25.7395 44.2857ZM32.9259 42.5429C33.7562 40.9572 34.5578 39.4 35.4168 37.7572C36.29 38.1 37.2205 38.4714 38.2226 38.8857C36.5906 40.4143 34.8585 41.6 32.9259 42.5429ZM40.5704 36.2C39.1674 35.6 37.8218 35.0143 36.5477 34.4714C36.9772 31.5714 37.4066 28.6714 37.8361 25.7429H44.4928C44.1492 29.6286 42.8465 33.1 40.5704 36.2Z" fill="white"/>
</g>
<defs>
<clipPath id="clip0_46_545">
<rect width="48" height="48" fill="white"/>
</clipPath>
</defs>
</svg>
